<svg xmlns="http://www.w3.org/2000/svg" xmlns:xlink="http://www.w3.org/1999/xlink" width="200" height="50" preserveAspectRatio="xMidYMid meet" version="1.0" viewBox="0 0 150 37.5" zoomAndPan="magnify"><defs><clipPath id="ed713078ef"><path d="M 9.152344 0.390625 L 140.710938 0.390625 L 140.710938 36.578125 L 9.152344 36.578125 Z M 9.152344 0.390625" clip-rule="nonzero"/></clipPath><clipPath id="566a661af3"><path d="M 12.707031 3.796875 L 74.917969 3.796875 L 74.917969 33.210938 L 12.707031 33.210938 Z M 12.707031 3.796875" clip-rule="nonzero"/></clipPath></defs><g clip-path="url(#ed713078ef)"><path fill="none" stroke="#38b6ff" stroke-linecap="butt" stroke-linejoin="miter" stroke-miterlimit="4" stroke-opacity="1" stroke-width="11.781" d="M -0.0039121 -0.00438674 L 348.909414 -0.00438674 L 348.909414 96.089894 L -0.0039121 96.089894 Z M -0.0039121 -0.00438674" transform="matrix(0.377052, 0, 0, 0.376583, 9.153819, 0.392277)"/></g><g clip-path="url(#566a661af3)"><path fill="#000" fill-opacity="1" fill-rule="nonzero" d="M 12.707031 3.796875 L 74.917969 3.796875 L 74.917969 33.210938 L 12.707031 33.210938 Z M 12.707031 3.796875"/></g><g fill="#fff" fill-opacity=".4"><g><g><path d="M 1.441406 0 L 2.683594 0 L 2.683594 -3.542969 L 4.855469 -3.542969 L 7.269531 0 L 8.765625 0 L 6.28125 -3.671875 C 7.722656 -4.023438 8.609375 -5.109375 8.609375 -6.707031 C 8.609375 -8.667969 7.257812 -9.882812 5.210938 -9.882812 L 1.441406 -9.882812 Z M 2.683594 -4.730469 L 2.683594 -8.695312 L 5.066406 -8.695312 C 6.507812 -8.695312 7.339844 -7.960938 7.339844 -6.707031 C 7.339844 -5.449219 6.507812 -4.730469 5.066406 -4.730469 Z M 2.683594 -4.730469" transform="translate(20.741694, 23.710067)"/></g></g></g><g fill="#fff" fill-opacity=".4"><g><g><path d="M 5.929688 0.183594 C 8.9375 0.183594 11.054688 -1.933594 11.054688 -4.941406 C 11.054688 -7.949219 8.9375 -10.066406 5.929688 -10.066406 C 2.921875 -10.066406 0.820312 -7.949219 0.820312 -4.941406 C 0.820312 -1.933594 2.921875 0.183594 5.929688 0.183594 Z M 2.089844 -4.941406 C 2.089844 -7.242188 3.65625 -8.824219 5.929688 -8.824219 C 8.203125 -8.824219 9.769531 -7.242188 9.769531 -4.941406 C 9.769531 -2.640625 8.203125 -1.058594 5.929688 -1.058594 C 3.65625 -1.058594 2.089844 -2.640625 2.089844 -4.941406 Z M 2.089844 -4.941406" transform="translate(31.424977, 23.710067)"/></g></g></g><g fill="#fff" fill-opacity=".4"><g><g><path d="M 0.238281 0 L 1.566406 0 L 2.46875 -2.246094 L 7.285156 -2.246094 L 8.214844 0 L 9.527344 0 L 5.464844 -9.882812 L 4.304688 -9.882812 Z M 2.949219 -3.402344 L 4.882812 -8.144531 L 6.820312 -3.402344 Z M 2.949219 -3.402344" transform="translate(44.352077, 23.710067)"/></g></g></g><g fill="#fff" fill-opacity=".4"><g><g><path d="M 1.441406 0 L 2.683594 0 L 2.683594 -7.566406 L 5.957031 -2.625 L 6.972656 -2.625 L 10.25 -7.550781 L 10.25 0 L 11.492188 0 L 11.492188 -9.882812 L 10.332031 -9.882812 L 6.480469 -4.023438 L 2.597656 -9.882812 L 1.441406 -9.882812 Z M 1.441406 0" transform="translate(55.19059, 23.710067)"/></g></g></g><g fill="#fff" fill-opacity="1"><g><g><path d="M 1.441406 0 L 2.683594 0 L 2.683594 -3.542969 L 4.855469 -3.542969 L 7.269531 0 L 8.765625 0 L 6.28125 -3.671875 C 7.722656 -4.023438 8.609375 -5.109375 8.609375 -6.707031 C 8.609375 -8.667969 7.257812 -9.882812 5.210938 -9.882812 L 1.441406 -9.882812 Z M 2.683594 -4.730469 L 2.683594 -8.695312 L 5.066406 -8.695312 C 6.507812 -8.695312 7.339844 -7.960938 7.339844 -6.707031 C 7.339844 -5.449219 6.507812 -4.730469 5.066406 -4.730469 Z M 2.683594 -4.730469" transform="translate(20.11777, 23.086143)"/></g></g></g><g fill="#fff" fill-opacity="1"><g><g><path d="M 5.929688 0.183594 C 8.9375 0.183594 11.054688 -1.933594 11.054688 -4.941406 C 11.054688 -7.949219 8.9375 -10.066406 5.929688 -10.066406 C 2.921875 -10.066406 0.820312 -7.949219 0.820312 -4.941406 C 0.820312 -1.933594 2.921875 0.183594 5.929688 0.183594 Z M 2.089844 -4.941406 C 2.089844 -7.242188 3.65625 -8.824219 5.929688 -8.824219 C 8.203125 -8.824219 9.769531 -7.242188 9.769531 -4.941406 C 9.769531 -2.640625 8.203125 -1.058594 5.929688 -1.058594 C 3.65625 -1.058594 2.089844 -2.640625 2.089844 -4.941406 Z M 2.089844 -4.941406" transform="translate(30.801053, 23.086143)"/></g></g></g><g fill="#fff" fill-opacity="1"><g><g><path d="M 0.238281 0 L 1.566406 0 L 2.46875 -2.246094 L 7.285156 -2.246094 L 8.214844 0 L 9.527344 0 L 5.464844 -9.882812 L 4.304688 -9.882812 Z M 2.949219 -3.402344 L 4.882812 -8.144531 L 6.820312 -3.402344 Z M 2.949219 -3.402344" transform="translate(43.728153, 23.086143)"/></g></g></g><g fill="#fff" fill-opacity="1"><g><g><path d="M 1.441406 0 L 2.683594 0 L 2.683594 -7.566406 L 5.957031 -2.625 L 6.972656 -2.625 L 10.25 -7.550781 L 10.25 0 L 11.492188 0 L 11.492188 -9.882812 L 10.332031 -9.882812 L 6.480469 -4.023438 L 2.597656 -9.882812 L 1.441406 -9.882812 Z M 1.441406 0" transform="translate(54.566666, 23.086143)"/></g></g></g><g fill="#000" fill-opacity=".4"><g><g><path d="M 1.042969 0 L 3.894531 0 L 3.894531 -2.808594 L 4.96875 -2.808594 L 6.382812 0 L 9.613281 0 L 7.792969 -3.332031 C 8.835938 -3.910156 9.429688 -4.957031 9.429688 -6.339844 C 9.429688 -8.527344 7.949219 -9.882812 5.546875 -9.882812 L 1.042969 -9.882812 Z M 3.839844 -5.082031 L 3.839844 -7.554688 L 5.167969 -7.554688 C 6.070312 -7.554688 6.566406 -7.113281 6.566406 -6.324219 C 6.566406 -5.535156 6.070312 -5.082031 5.167969 -5.082031 Z M 3.839844 -5.082031" transform="translate(83.194565, 23.872089)"/></g></g></g><g fill="#000" fill-opacity=".4"><g><g><path d="M 1.042969 0 L 7.976562 0 L 7.976562 -2.328125 L 3.867188 -2.328125 L 3.867188 -3.855469 L 7.441406 -3.855469 L 7.441406 -6.140625 L 3.867188 -6.140625 L 3.867188 -7.582031 L 7.820312 -7.582031 L 7.820312 -9.882812 L 1.042969 -9.882812 Z M 1.042969 0" transform="translate(93.357937, 23.872089)"/></g></g></g><g fill="#000" fill-opacity=".4"><g><g><path d="M 0.0703125 0 L 3.089844 0 L 3.628906 -1.398438 L 7.003906 -1.398438 L 7.539062 0 L 10.574219 0 L 6.734375 -9.882812 L 3.910156 -9.882812 Z M 4.222656 -3.488281 L 5.324219 -6.550781 L 6.421875 -3.488281 Z M 4.222656 -3.488281" transform="translate(101.968568, 23.872089)"/></g></g></g><g fill="#000" fill-opacity=".4"><g><g><path d="M 1.042969 0 L 5.238281 0 C 8.429688 0 10.546875 -1.960938 10.546875 -4.941406 C 10.546875 -7.90625 8.429688 -9.882812 5.238281 -9.882812 L 1.042969 -9.882812 Z M 3.894531 -2.554688 L 3.894531 -7.328125 L 5.152344 -7.328125 C 6.664062 -7.328125 7.636719 -6.394531 7.636719 -4.941406 C 7.636719 -3.488281 6.664062 -2.554688 5.152344 -2.554688 Z M 3.894531 -2.554688" transform="translate(112.611875, 23.872089)"/></g></g></g><g fill="#000" fill-opacity=".4"><g><g><path d="M 3.671875 0 L 6.507812 0 L 6.507812 -3.445312 L 10.109375 -9.882812 L 6.875 -9.882812 L 5.082031 -6.339844 L 4.320312 -7.835938 L 3.273438 -9.882812 L 0.0703125 -9.882812 L 3.671875 -3.429688 Z M 3.671875 0" transform="translate(123.636308, 23.872089)"/></g></g></g><g fill="#000" fill-opacity="1"><g><g><path d="M 1.042969 0 L 3.894531 0 L 3.894531 -2.808594 L 4.96875 -2.808594 L 6.382812 0 L 9.613281 0 L 7.792969 -3.332031 C 8.835938 -3.910156 9.429688 -4.957031 9.429688 -6.339844 C 9.429688 -8.527344 7.949219 -9.882812 5.546875 -9.882812 L 1.042969 -9.882812 Z M 3.839844 -5.082031 L 3.839844 -7.554688 L 5.167969 -7.554688 C 6.070312 -7.554688 6.566406 -7.113281 6.566406 -6.324219 C 6.566406 -5.535156 6.070312 -5.082031 5.167969 -5.082031 Z M 3.839844 -5.082031" transform="translate(82.570643, 23.248165)"/></g></g></g><g fill="#000" fill-opacity="1"><g><g><path d="M 1.042969 0 L 7.976562 0 L 7.976562 -2.328125 L 3.867188 -2.328125 L 3.867188 -3.855469 L 7.441406 -3.855469 L 7.441406 -6.140625 L 3.867188 -6.140625 L 3.867188 -7.582031 L 7.820312 -7.582031 L 7.820312 -9.882812 L 1.042969 -9.882812 Z M 1.042969 0" transform="translate(92.734014, 23.248165)"/></g></g></g><g fill="#000" fill-opacity="1"><g><g><path d="M 0.0703125 0 L 3.089844 0 L 3.628906 -1.398438 L 7.003906 -1.398438 L 7.539062 0 L 10.574219 0 L 6.734375 -9.882812 L 3.910156 -9.882812 Z M 4.222656 -3.488281 L 5.324219 -6.550781 L 6.421875 -3.488281 Z M 4.222656 -3.488281" transform="translate(101.344646, 23.248165)"/></g></g></g><g fill="#000" fill-opacity="1"><g><g><path d="M 1.042969 0 L 5.238281 0 C 8.429688 0 10.546875 -1.960938 10.546875 -4.941406 C 10.546875 -7.90625 8.429688 -9.882812 5.238281 -9.882812 L 1.042969 -9.882812 Z M 3.894531 -2.554688 L 3.894531 -7.328125 L 5.152344 -7.328125 C 6.664062 -7.328125 7.636719 -6.394531 7.636719 -4.941406 C 7.636719 -3.488281 6.664062 -2.554688 5.152344 -2.554688 Z M 3.894531 -2.554688" transform="translate(111.987952, 23.248165)"/></g></g></g><g fill="#000" fill-opacity="1"><g><g><path d="M 3.671875 0 L 6.507812 0 L 6.507812 -3.445312 L 10.109375 -9.882812 L 6.875 -9.882812 L 5.082031 -6.339844 L 4.320312 -7.835938 L 3.273438 -9.882812 L 0.0703125 -9.882812 L 3.671875 -3.429688 Z M 3.671875 0" transform="translate(123.012385, 23.248165)"/></g></g></g></svg>